<?xml version="1.0" encoding="UTF-8" standalone="no"?>
<!DOCTYPE svg PUBLIC "-//W3C//DTD SVG 1.1//EN"
 "http://www.w3.org/Graphics/SVG/1.1/DTD/svg11.dtd">
<!-- Generated by graphviz version 2.38.0 (20140413.2041)
 -->
<!-- Title: snakemake_dag Pages: 1 -->
<svg width="594pt" height="764pt"
 viewBox="0.00 0.00 593.50 764.00" xmlns="http://www.w3.org/2000/svg" xmlns:xlink="http://www.w3.org/1999/xlink">
<g id="graph0" class="graph" transform="scale(1 1) rotate(0) translate(4 760)">
<title>snakemake_dag</title>
<polygon fill="white" stroke="none" points="-4,4 -4,-760 589.5,-760 589.5,4 -4,4"/>
<!-- 0 -->
<g id="node1" class="node"><title>0</title>
<path fill="none" stroke="#d87556" stroke-width="2" d="M282.5,-36C282.5,-36 252.5,-36 252.5,-36 246.5,-36 240.5,-30 240.5,-24 240.5,-24 240.5,-12 240.5,-12 240.5,-6 246.5,-0 252.5,-0 252.5,-0 282.5,-0 282.5,-0 288.5,-0 294.5,-6 294.5,-12 294.5,-12 294.5,-24 294.5,-24 294.5,-30 288.5,-36 282.5,-36"/>
<text text-anchor="middle" x="267.5" y="-15.5" font-family="sans" font-size="10.00">all</text>
</g>
<!-- 1 -->
<g id="node2" class="node"><title>1</title>
<path fill="none" stroke="#68d856" stroke-width="2" d="M191.5,-108C191.5,-108 143.5,-108 143.5,-108 137.5,-108 131.5,-102 131.5,-96 131.5,-96 131.5,-84 131.5,-84 131.5,-78 137.5,-72 143.5,-72 143.5,-72 191.5,-72 191.5,-72 197.5,-72 203.5,-78 203.5,-84 203.5,-84 203.5,-96 203.5,-96 203.5,-102 197.5,-108 191.5,-108"/>
<text text-anchor="middle" x="167.5" y="-87.5" font-family="sans" font-size="10.00">BinsanityLC</text>
</g>
<!-- 1&#45;&gt;0 -->
<g id="edge1" class="edge"><title>1&#45;&gt;0</title>
<path fill="none" stroke="grey" stroke-width="2" d="M191.963,-71.8761C204.796,-62.8931 220.696,-51.7625 234.594,-42.0341"/>
<polygon fill="grey" stroke="grey" stroke-width="2" points="236.758,-44.7917 242.943,-36.1898 232.744,-39.0571 236.758,-44.7917"/>
</g>
<!-- 2 -->
<g id="node3" class="node"><title>2</title>
<path fill="none" stroke="#d8d356" stroke-width="2" stroke-dasharray="5,2" d="M373.5,-612C373.5,-612 323.5,-612 323.5,-612 317.5,-612 311.5,-606 311.5,-600 311.5,-600 311.5,-588 311.5,-588 311.5,-582 317.5,-576 323.5,-576 323.5,-576 373.5,-576 373.5,-576 379.5,-576 385.5,-582 385.5,-588 385.5,-588 385.5,-600 385.5,-600 385.5,-606 379.5,-612 373.5,-612"/>
<text text-anchor="middle" x="348.5" y="-591.5" font-family="sans" font-size="10.00">SimplyFasta</text>
</g>
<!-- 2&#45;&gt;0 -->
<g id="edge2" class="edge"><title>2&#45;&gt;0</title>
<path fill="none" stroke="grey" stroke-width="2" d="M385.93,-584.41C443.576,-568.71 547.5,-529.519 547.5,-451 547.5,-451 547.5,-451 547.5,-161 547.5,-120.553 557.243,-100.457 528.5,-72 497.375,-41.1844 369.375,-26.9522 304.931,-21.6353"/>
<polygon fill="grey" stroke="grey" stroke-width="2" points="305.033,-18.1324 294.787,-20.8289 304.478,-25.1104 305.033,-18.1324"/>
</g>
<!-- 5 -->
<g id="node6" class="node"><title>5</title>
<path fill="none" stroke="#56d882" stroke-width="2" stroke-dasharray="5,2" d="M325.5,-180C325.5,-180 287.5,-180 287.5,-180 281.5,-180 275.5,-174 275.5,-168 275.5,-168 275.5,-156 275.5,-156 275.5,-150 281.5,-144 287.5,-144 287.5,-144 325.5,-144 325.5,-144 331.5,-144 337.5,-150 337.5,-156 337.5,-156 337.5,-168 337.5,-168 337.5,-174 331.5,-180 325.5,-180"/>
<text text-anchor="middle" x="306.5" y="-159.5" font-family="sans" font-size="10.00">Coverage</text>
</g>
<!-- 2&#45;&gt;5 -->
<g id="edge16" class="edge"><title>2&#45;&gt;5</title>
<path fill="none" stroke="grey" stroke-width="2" d="M356.19,-575.907C367.294,-549.623 386.5,-497.447 386.5,-451 386.5,-451 386.5,-451 386.5,-305 386.5,-259.099 354.377,-214.352 330.842,-187.727"/>
<polygon fill="grey" stroke="grey" stroke-width="2" points="333.182,-185.098 323.859,-180.065 328.008,-189.814 333.182,-185.098"/>
</g>
<!-- 12 -->
<g id="node13" class="node"><title>12</title>
<path fill="none" stroke="#d85656" stroke-width="2" stroke-dasharray="5,2" d="M329.5,-468C329.5,-468 299.5,-468 299.5,-468 293.5,-468 287.5,-462 287.5,-456 287.5,-456 287.5,-444 287.5,-444 287.5,-438 293.5,-432 299.5,-432 299.5,-432 329.5,-432 329.5,-432 335.5,-432 341.5,-438 341.5,-444 341.5,-444 341.5,-456 341.5,-456 341.5,-462 335.5,-468 329.5,-468"/>
<text text-anchor="middle" x="314.5" y="-447.5" font-family="sans" font-size="10.00">GetIds</text>
</g>
<!-- 2&#45;&gt;12 -->
<g id="edge23" class="edge"><title>2&#45;&gt;12</title>
<path fill="none" stroke="grey" stroke-width="2" d="M344.854,-575.894C340.981,-557.943 334.59,-528.922 328.5,-504 326.435,-495.549 324.06,-486.377 321.859,-478.075"/>
<polygon fill="grey" stroke="grey" stroke-width="2" points="325.168,-476.9 319.202,-468.145 318.406,-478.709 325.168,-476.9"/>
</g>
<!-- 15 -->
<g id="node16" class="node"><title>15</title>
<path fill="none" stroke="#bed856" stroke-width="2" stroke-dasharray="5,2" d="M308,-540C308,-540 255,-540 255,-540 249,-540 243,-534 243,-528 243,-528 243,-516 243,-516 243,-510 249,-504 255,-504 255,-504 308,-504 308,-504 314,-504 320,-510 320,-516 320,-516 320,-528 320,-528 320,-534 314,-540 308,-540"/>
<text text-anchor="middle" x="281.5" y="-519.5" font-family="sans" font-size="10.00">Bowtie2Build</text>
</g>
<!-- 2&#45;&gt;15 -->
<g id="edge28" class="edge"><title>2&#45;&gt;15</title>
<path fill="none" stroke="grey" stroke-width="2" d="M331.938,-575.697C323.825,-567.22 313.912,-556.864 305.029,-547.583"/>
<polygon fill="grey" stroke="grey" stroke-width="2" points="307.314,-544.908 297.871,-540.104 302.257,-549.749 307.314,-544.908"/>
</g>
<!-- 3 -->
<g id="node4" class="node"><title>3</title>
<path fill="none" stroke="#56d863" stroke-width="2" stroke-dasharray="5,2" d="M235,-252C235,-252 194,-252 194,-252 188,-252 182,-246 182,-240 182,-240 182,-228 182,-228 182,-222 188,-216 194,-216 194,-216 235,-216 235,-216 241,-216 247,-222 247,-228 247,-228 247,-240 247,-240 247,-246 241,-252 235,-252"/>
<text text-anchor="middle" x="214.5" y="-231.5" font-family="sans" font-size="10.00">AddGroup</text>
</g>
<!-- 3&#45;&gt;0 -->
<g id="edge3" class="edge"><title>3&#45;&gt;0</title>
<path fill="none" stroke="grey" stroke-width="2" d="M191.729,-215.935C154.396,-185.856 87.6349,-121.865 122.5,-72 146.649,-37.4621 195.833,-25.3568 230.189,-21.1569"/>
<polygon fill="grey" stroke="grey" stroke-width="2" points="230.752,-24.6172 240.331,-20.0913 230.02,-17.6555 230.752,-24.6172"/>
</g>
<!-- 3&#45;&gt;5 -->
<g id="edge18" class="edge"><title>3&#45;&gt;5</title>
<path fill="none" stroke="grey" stroke-width="2" d="M237.242,-215.697C248.94,-206.796 263.361,-195.823 276.01,-186.199"/>
<polygon fill="grey" stroke="grey" stroke-width="2" points="278.181,-188.945 284.02,-180.104 273.942,-183.374 278.181,-188.945"/>
</g>
<!-- 4 -->
<g id="node5" class="node"><title>4</title>
<path fill="none" stroke="#d89556" stroke-width="2" stroke-dasharray="5,2" d="M174,-684C174,-684 97,-684 97,-684 91,-684 85,-678 85,-672 85,-672 85,-660 85,-660 85,-654 91,-648 97,-648 97,-648 174,-648 174,-648 180,-648 186,-654 186,-660 186,-660 186,-672 186,-672 186,-678 180,-684 174,-684"/>
<text text-anchor="middle" x="135.5" y="-669" font-family="sans" font-size="10.00">MegahitAssembly</text>
<text text-anchor="middle" x="135.5" y="-658" font-family="sans" font-size="10.00">project: binsanity</text>
</g>
<!-- 4&#45;&gt;0 -->
<g id="edge4" class="edge"><title>4&#45;&gt;0</title>
<path fill="none" stroke="grey" stroke-width="2" d="M125.767,-647.87C106.533,-612.357 65.5,-527.616 65.5,-451 65.5,-451 65.5,-451 65.5,-161 65.5,-116.874 76.2579,-101.018 109.5,-72 143.673,-42.1698 195.249,-28.9987 230.096,-23.2701"/>
<polygon fill="grey" stroke="grey" stroke-width="2" points="230.971,-26.6775 240.335,-21.7209 229.924,-19.7563 230.971,-26.6775"/>
</g>
<!-- 4&#45;&gt;2 -->
<g id="edge12" class="edge"><title>4&#45;&gt;2</title>
<path fill="none" stroke="grey" stroke-width="2" d="M186.248,-648.322C221.302,-636.802 267.579,-621.594 301.737,-610.368"/>
<polygon fill="grey" stroke="grey" stroke-width="2" points="303.068,-613.615 311.476,-607.168 300.883,-606.965 303.068,-613.615"/>
</g>
<!-- 5&#45;&gt;0 -->
<g id="edge5" class="edge"><title>5&#45;&gt;0</title>
<path fill="none" stroke="grey" stroke-width="2" d="M280.376,-143.816C268.921,-134.692 256.692,-122.386 250.5,-108 241.894,-88.006 247.559,-63.6235 254.581,-45.4384"/>
<polygon fill="grey" stroke="grey" stroke-width="2" points="257.883,-46.6148 258.54,-36.0403 251.432,-43.8973 257.883,-46.6148"/>
</g>
<!-- 5&#45;&gt;1 -->
<g id="edge11" class="edge"><title>5&#45;&gt;1</title>
<path fill="none" stroke="grey" stroke-width="2" d="M275.306,-145.291C256.201,-135.67 231.481,-123.221 210.532,-112.671"/>
<polygon fill="grey" stroke="grey" stroke-width="2" points="212.016,-109.499 201.51,-108.127 208.867,-115.751 212.016,-109.499"/>
</g>
<!-- 6 -->
<g id="node7" class="node"><title>6</title>
<path fill="none" stroke="#56d0d8" stroke-width="2" d="M337,-108C337,-108 272,-108 272,-108 266,-108 260,-102 260,-96 260,-96 260,-84 260,-84 260,-78 266,-72 272,-72 272,-72 337,-72 337,-72 343,-72 349,-78 349,-84 349,-84 349,-96 349,-96 349,-102 343,-108 337,-108"/>
<text text-anchor="middle" x="304.5" y="-87.5" font-family="sans" font-size="10.00">BinsanityRefine</text>
</g>
<!-- 5&#45;&gt;6 -->
<g id="edge19" class="edge"><title>5&#45;&gt;6</title>
<path fill="none" stroke="grey" stroke-width="2" d="M306.006,-143.697C305.785,-135.983 305.52,-126.712 305.275,-118.112"/>
<polygon fill="grey" stroke="grey" stroke-width="2" points="308.773,-118 304.989,-108.104 301.776,-118.2 308.773,-118"/>
</g>
<!-- 8 -->
<g id="node9" class="node"><title>8</title>
<path fill="none" stroke="#d8b456" stroke-width="2" d="M429.5,-108C429.5,-108 379.5,-108 379.5,-108 373.5,-108 367.5,-102 367.5,-96 367.5,-96 367.5,-84 367.5,-84 367.5,-78 373.5,-72 379.5,-72 379.5,-72 429.5,-72 429.5,-72 435.5,-72 441.5,-78 441.5,-84 441.5,-84 441.5,-96 441.5,-96 441.5,-102 435.5,-108 429.5,-108"/>
<text text-anchor="middle" x="404.5" y="-87.5" font-family="sans" font-size="10.00">BinsanityWF</text>
</g>
<!-- 5&#45;&gt;8 -->
<g id="edge20" class="edge"><title>5&#45;&gt;8</title>
<path fill="none" stroke="grey" stroke-width="2" d="M330.473,-143.876C343.05,-134.893 358.632,-123.763 372.252,-114.034"/>
<polygon fill="grey" stroke="grey" stroke-width="2" points="374.331,-116.85 380.434,-108.19 370.263,-111.154 374.331,-116.85"/>
</g>
<!-- 10 -->
<g id="node11" class="node"><title>10</title>
<path fill="none" stroke="#88d856" stroke-width="2" d="M507.5,-108C507.5,-108 471.5,-108 471.5,-108 465.5,-108 459.5,-102 459.5,-96 459.5,-96 459.5,-84 459.5,-84 459.5,-78 465.5,-72 471.5,-72 471.5,-72 507.5,-72 507.5,-72 513.5,-72 519.5,-78 519.5,-84 519.5,-84 519.5,-96 519.5,-96 519.5,-102 513.5,-108 507.5,-108"/>
<text text-anchor="middle" x="489.5" y="-87.5" font-family="sans" font-size="10.00">Binsanity</text>
</g>
<!-- 5&#45;&gt;10 -->
<g id="edge21" class="edge"><title>5&#45;&gt;10</title>
<path fill="none" stroke="grey" stroke-width="2" d="M337.598,-150.146C364.953,-140.468 406.024,-125.624 449.931,-108.127"/>
<polygon fill="grey" stroke="grey" stroke-width="2" points="451.361,-111.325 459.34,-104.354 448.755,-104.828 451.361,-111.325"/>
</g>
<!-- 6&#45;&gt;0 -->
<g id="edge6" class="edge"><title>6&#45;&gt;0</title>
<path fill="none" stroke="grey" stroke-width="2" d="M295.354,-71.6966C291.097,-63.6436 285.944,-53.8945 281.234,-44.9824"/>
<polygon fill="grey" stroke="grey" stroke-width="2" points="284.308,-43.3097 276.541,-36.1043 278.12,-46.5809 284.308,-43.3097"/>
</g>
<!-- 7 -->
<g id="node8" class="node"><title>7</title>
<path fill="none" stroke="#56b1d8" stroke-width="2" stroke-dasharray="5,2" d="M101,-756C101,-756 12,-756 12,-756 6,-756 0,-750 0,-744 0,-744 0,-732 0,-732 0,-726 6,-720 12,-720 12,-720 101,-720 101,-720 107,-720 113,-726 113,-732 113,-732 113,-744 113,-744 113,-750 107,-756 101,-756"/>
<text text-anchor="middle" x="56.5" y="-741" font-family="sans" font-size="10.00">Trimmomatic</text>
<text text-anchor="middle" x="56.5" y="-730" font-family="sans" font-size="10.00">sample: SRR492066</text>
</g>
<!-- 7&#45;&gt;0 -->
<g id="edge7" class="edge"><title>7&#45;&gt;0</title>
<path fill="none" stroke="grey" stroke-width="2" d="M48.8101,-719.907C37.7064,-693.623 18.5,-641.447 18.5,-595 18.5,-595 18.5,-595 18.5,-161 18.5,-114.501 36.2581,-99.8427 73.5,-72 120.16,-37.1159 188.413,-25.19 230.287,-21.1143"/>
<polygon fill="grey" stroke="grey" stroke-width="2" points="230.678,-24.5936 240.336,-20.238 230.07,-17.6201 230.678,-24.5936"/>
</g>
<!-- 7&#45;&gt;4 -->
<g id="edge15" class="edge"><title>7&#45;&gt;4</title>
<path fill="none" stroke="grey" stroke-width="2" d="M76.0281,-719.697C85.8818,-710.965 97.9857,-700.24 108.696,-690.75"/>
<polygon fill="grey" stroke="grey" stroke-width="2" points="111.033,-693.356 116.197,-684.104 106.391,-688.117 111.033,-693.356"/>
</g>
<!-- 14 -->
<g id="node15" class="node"><title>14</title>
<path fill="none" stroke="#9fd856" stroke-width="2" stroke-dasharray="5,2" d="M241,-468C241,-468 188,-468 188,-468 182,-468 176,-462 176,-456 176,-456 176,-444 176,-444 176,-438 182,-432 188,-432 188,-432 241,-432 241,-432 247,-432 253,-438 253,-444 253,-444 253,-456 253,-456 253,-462 247,-468 241,-468"/>
<text text-anchor="middle" x="214.5" y="-447.5" font-family="sans" font-size="10.00">Bowtie2Align</text>
</g>
<!-- 7&#45;&gt;14 -->
<g id="edge25" class="edge"><title>7&#45;&gt;14</title>
<path fill="none" stroke="grey" stroke-width="2" d="M58.074,-719.976C60.2379,-701.588 65.1146,-671.739 75.5,-648 105.243,-580.013 160.454,-511.711 191.594,-476.137"/>
<polygon fill="grey" stroke="grey" stroke-width="2" points="194.586,-478.037 198.593,-468.23 189.345,-473.398 194.586,-478.037"/>
</g>
<!-- 8&#45;&gt;0 -->
<g id="edge8" class="edge"><title>8&#45;&gt;0</title>
<path fill="none" stroke="grey" stroke-width="2" d="M370.986,-71.8761C350.652,-61.4865 324.696,-48.2243 303.866,-37.5812"/>
<polygon fill="grey" stroke="grey" stroke-width="2" points="305.192,-34.3284 294.695,-32.8951 302.007,-40.5619 305.192,-34.3284"/>
</g>
<!-- 9 -->
<g id="node10" class="node"><title>9</title>
<path fill="none" stroke="#56b1d8" stroke-width="2" stroke-dasharray="5,2" d="M259,-756C259,-756 170,-756 170,-756 164,-756 158,-750 158,-744 158,-744 158,-732 158,-732 158,-726 164,-720 170,-720 170,-720 259,-720 259,-720 265,-720 271,-726 271,-732 271,-732 271,-744 271,-744 271,-750 265,-756 259,-756"/>
<text text-anchor="middle" x="214.5" y="-741" font-family="sans" font-size="10.00">Trimmomatic</text>
<text text-anchor="middle" x="214.5" y="-730" font-family="sans" font-size="10.00">sample: SRR492065</text>
</g>
<!-- 9&#45;&gt;0 -->
<g id="edge9" class="edge"><title>9&#45;&gt;0</title>
<path fill="none" stroke="grey" stroke-width="2" d="M271.251,-727.451C375.179,-708.344 585.5,-661.466 585.5,-595 585.5,-595 585.5,-595 585.5,-161 585.5,-118.656 584.017,-99.1225 551.5,-72 514.573,-41.1995 373.641,-26.8052 305.218,-21.5197"/>
<polygon fill="grey" stroke="grey" stroke-width="2" points="305.118,-18.0026 294.886,-20.7485 304.597,-24.9832 305.118,-18.0026"/>
</g>
<!-- 9&#45;&gt;4 -->
<g id="edge14" class="edge"><title>9&#45;&gt;4</title>
<path fill="none" stroke="grey" stroke-width="2" d="M194.972,-719.697C185.118,-710.965 173.014,-700.24 162.304,-690.75"/>
<polygon fill="grey" stroke="grey" stroke-width="2" points="164.609,-688.117 154.803,-684.104 159.967,-693.356 164.609,-688.117"/>
</g>
<!-- 9&#45;&gt;14 -->
<g id="edge26" class="edge"><title>9&#45;&gt;14</title>
<path fill="none" stroke="grey" stroke-width="2" d="M214.5,-719.966C214.5,-672.291 214.5,-537.185 214.5,-478.63"/>
<polygon fill="grey" stroke="grey" stroke-width="2" points="218,-478.306 214.5,-468.306 211,-478.306 218,-478.306"/>
</g>
<!-- 10&#45;&gt;0 -->
<g id="edge10" class="edge"><title>10&#45;&gt;0</title>
<path fill="none" stroke="grey" stroke-width="2" d="M459.422,-75.4311C456.428,-74.2189 453.418,-73.0535 450.5,-72 400.735,-54.0323 341.712,-37.8257 304.43,-28.1946"/>
<polygon fill="grey" stroke="grey" stroke-width="2" points="305.072,-24.7463 294.517,-25.6565 303.336,-31.5276 305.072,-24.7463"/>
</g>
<!-- 11 -->
<g id="node12" class="node"><title>11</title>
<path fill="none" stroke="#56d8a2" stroke-width="2" stroke-dasharray="5,2" d="M247.5,-324C247.5,-324 181.5,-324 181.5,-324 175.5,-324 169.5,-318 169.5,-312 169.5,-312 169.5,-300 169.5,-300 169.5,-294 175.5,-288 181.5,-288 181.5,-288 247.5,-288 247.5,-288 253.5,-288 259.5,-294 259.5,-300 259.5,-300 259.5,-312 259.5,-312 259.5,-318 253.5,-324 247.5,-324"/>
<text text-anchor="middle" x="214.5" y="-303.5" font-family="sans" font-size="10.00">MarkDuplicates</text>
</g>
<!-- 11&#45;&gt;3 -->
<g id="edge13" class="edge"><title>11&#45;&gt;3</title>
<path fill="none" stroke="grey" stroke-width="2" d="M214.5,-287.697C214.5,-279.983 214.5,-270.712 214.5,-262.112"/>
<polygon fill="grey" stroke="grey" stroke-width="2" points="218,-262.104 214.5,-252.104 211,-262.104 218,-262.104"/>
</g>
<!-- 12&#45;&gt;5 -->
<g id="edge17" class="edge"><title>12&#45;&gt;5</title>
<path fill="none" stroke="grey" stroke-width="2" d="M314.024,-431.966C312.69,-384.291 308.911,-249.185 307.273,-190.63"/>
<polygon fill="grey" stroke="grey" stroke-width="2" points="310.762,-190.205 306.984,-180.306 303.765,-190.4 310.762,-190.205"/>
</g>
<!-- 13 -->
<g id="node14" class="node"><title>13</title>
<path fill="none" stroke="#5673d8" stroke-width="2" stroke-dasharray="5,2" d="M235.5,-396C235.5,-396 193.5,-396 193.5,-396 187.5,-396 181.5,-390 181.5,-384 181.5,-384 181.5,-372 181.5,-372 181.5,-366 187.5,-360 193.5,-360 193.5,-360 235.5,-360 235.5,-360 241.5,-360 247.5,-366 247.5,-372 247.5,-372 247.5,-384 247.5,-384 247.5,-390 241.5,-396 235.5,-396"/>
<text text-anchor="middle" x="214.5" y="-375.5" font-family="sans" font-size="10.00">SAM2BAM</text>
</g>
<!-- 13&#45;&gt;11 -->
<g id="edge22" class="edge"><title>13&#45;&gt;11</title>
<path fill="none" stroke="grey" stroke-width="2" d="M214.5,-359.697C214.5,-351.983 214.5,-342.712 214.5,-334.112"/>
<polygon fill="grey" stroke="grey" stroke-width="2" points="218,-334.104 214.5,-324.104 211,-334.104 218,-334.104"/>
</g>
<!-- 14&#45;&gt;13 -->
<g id="edge24" class="edge"><title>14&#45;&gt;13</title>
<path fill="none" stroke="grey" stroke-width="2" d="M214.5,-431.697C214.5,-423.983 214.5,-414.712 214.5,-406.112"/>
<polygon fill="grey" stroke="grey" stroke-width="2" points="218,-406.104 214.5,-396.104 211,-406.104 218,-406.104"/>
</g>
<!-- 15&#45;&gt;14 -->
<g id="edge27" class="edge"><title>15&#45;&gt;14</title>
<path fill="none" stroke="grey" stroke-width="2" d="M264.938,-503.697C256.825,-495.22 246.912,-484.864 238.029,-475.583"/>
<polygon fill="grey" stroke="grey" stroke-width="2" points="240.314,-472.908 230.871,-468.104 235.257,-477.749 240.314,-472.908"/>
</g>
</g>
</svg>
